<svg xmlns="http://www.w3.org/2000/svg" xmlns:xlink="http://www.w3.org/1999/xlink" width="500" zoomAndPan="magnify" viewBox="0 0 375 374.999991" height="500" preserveAspectRatio="xMidYMid meet" version="1.0"><defs><clipPath id="7e566d3095"><path d="M 76 28 L 354 28 L 354 326 L 76 326 Z M 76 28 " clip-rule="nonzero"/></clipPath><clipPath id="47772695b7"><path d="M -69.929688 64.488281 L 302.824219 -77.839844 L 445.148438 294.914062 L 72.398438 437.238281 Z M -69.929688 64.488281 " clip-rule="nonzero"/></clipPath><clipPath id="0a84bef8be"><path d="M -69.929688 64.488281 L 302.824219 -77.839844 L 445.148438 294.914062 L 72.398438 437.238281 Z M -69.929688 64.488281 " clip-rule="nonzero"/></clipPath><clipPath id="823e39fea2"><path d="M 85 192 L 210 192 L 210 317 L 85 317 Z M 85 192 " clip-rule="nonzero"/></clipPath><clipPath id="b0158c0dbe"><path d="M -69.929688 64.488281 L 302.824219 -77.839844 L 445.148438 294.914062 L 72.398438 437.238281 Z M -69.929688 64.488281 " clip-rule="nonzero"/></clipPath><clipPath id="a0587a29cf"><path d="M -69.929688 64.488281 L 302.824219 -77.839844 L 445.148438 294.914062 L 72.398438 437.238281 Z M -69.929688 64.488281 " clip-rule="nonzero"/></clipPath><clipPath id="36c6a7b6ee"><path d="M 141 58 L 169 58 L 169 242 L 141 242 Z M 141 58 " clip-rule="nonzero"/></clipPath><clipPath id="74f13c7ff4"><path d="M -69.929688 64.488281 L 302.824219 -77.839844 L 445.148438 294.914062 L 72.398438 437.238281 Z M -69.929688 64.488281 " clip-rule="nonzero"/></clipPath><clipPath id="90d7f1d48d"><path d="M -69.929688 64.488281 L 302.824219 -77.839844 L 445.148438 294.914062 L 72.398438 437.238281 Z M -69.929688 64.488281 " clip-rule="nonzero"/></clipPath><clipPath id="618e6174ad"><path d="M 119 240 L 304 240 L 304 259 L 119 259 Z M 119 240 " clip-rule="nonzero"/></clipPath><clipPath id="44b1068979"><path d="M -69.929688 64.488281 L 302.824219 -77.839844 L 445.148438 294.914062 L 72.398438 437.238281 Z M -69.929688 64.488281 " clip-rule="nonzero"/></clipPath><clipPath id="2b6b251d02"><path d="M -69.929688 64.488281 L 302.824219 -77.839844 L 445.148438 294.914062 L 72.398438 437.238281 Z M -69.929688 64.488281 " clip-rule="nonzero"/></clipPath><clipPath id="01c96cfd5d"><path d="M 116 37 L 208 37 L 208 128 L 116 128 Z M 116 37 " clip-rule="nonzero"/></clipPath><clipPath id="32c1c9a712"><path d="M -69.929688 64.488281 L 302.824219 -77.839844 L 445.148438 294.914062 L 72.398438 437.238281 Z M -69.929688 64.488281 " clip-rule="nonzero"/></clipPath><clipPath id="2e9bde30cc"><path d="M -69.929688 64.488281 L 302.824219 -77.839844 L 445.148438 294.914062 L 72.398438 437.238281 Z M -69.929688 64.488281 " clip-rule="nonzero"/></clipPath><clipPath id="79ce12a95d"><path d="M 254 199 L 345 199 L 345 290 L 254 290 Z M 254 199 " clip-rule="nonzero"/></clipPath><clipPath id="b1822e36c8"><path d="M -69.929688 64.488281 L 302.824219 -77.839844 L 445.148438 294.914062 L 72.398438 437.238281 Z M -69.929688 64.488281 " clip-rule="nonzero"/></clipPath><clipPath id="9ade913c75"><path d="M -69.929688 64.488281 L 302.824219 -77.839844 L 445.148438 294.914062 L 72.398438 437.238281 Z M -69.929688 64.488281 " clip-rule="nonzero"/></clipPath></defs><rect x="-37.5" width="450" fill="#ffffff" y="-37.499999" height="449.999989" fill-opacity="1"/><rect x="-37.5" width="450" fill="#ffffff" y="-37.499999" height="449.999989" fill-opacity="1"/><g clip-path="url(#7e566d3095)"><g clip-path="url(#47772695b7)"><g clip-path="url(#0a84bef8be)"><path fill="#6ce200" d="M 343.035156 212.996094 C 328.859375 193.277344 303.132812 185.542969 280.472656 194.195312 C 276.167969 195.839844 272.070312 198.054688 268.292969 200.761719 C 256.679688 209.117188 249.007812 221.488281 246.695312 235.609375 C 246.511719 236.710938 246.378906 237.808594 246.269531 238.914062 L 216.136719 240.675781 C 214.175781 231 210.195312 221.75 204.25 213.496094 C 193.296875 198.25 177.082031 188.460938 159.527344 185.28125 L 165.019531 135.660156 C 170.398438 135.363281 175.808594 134.246094 181.050781 132.242188 C 185.355469 130.597656 189.453125 128.390625 193.226562 125.675781 C 204.847656 117.332031 212.519531 104.960938 214.824219 90.839844 C 217.132812 76.71875 213.804688 62.550781 205.460938 50.933594 C 191.285156 31.21875 165.558594 23.488281 142.890625 32.144531 C 138.585938 33.785156 134.488281 36 130.710938 38.710938 C 106.738281 55.945312 101.257812 89.472656 118.484375 113.464844 C 125.917969 123.804688 136.53125 130.839844 148.210938 133.945312 L 142.640625 184.285156 C 135.679688 184.722656 128.691406 186.183594 121.925781 188.769531 C 116.261719 190.929688 110.871094 193.832031 105.90625 197.40625 C 90.625 208.394531 80.535156 224.683594 77.492188 243.25 C 74.457031 261.835938 78.832031 280.476562 89.820312 295.757812 C 108.46875 321.703125 142.316406 331.882812 172.140625 320.496094 C 177.8125 318.328125 183.199219 315.417969 188.175781 311.851562 C 203.449219 300.867188 213.546875 284.585938 216.585938 266.007812 C 217.050781 263.167969 217.316406 260.34375 217.433594 257.519531 L 247.230469 255.773438 C 248.777344 262.796875 251.738281 269.5 256.066406 275.511719 C 270.234375 295.234375 295.964844 302.957031 318.625 294.304688 C 322.929688 292.660156 327.03125 290.453125 330.804688 287.738281 C 342.421875 279.394531 350.089844 267.011719 352.398438 252.902344 C 354.710938 238.78125 351.378906 224.613281 343.035156 212.996094 " fill-opacity="1" fill-rule="nonzero"/></g></g></g><g clip-path="url(#823e39fea2)"><g clip-path="url(#b0158c0dbe)"><g clip-path="url(#a0587a29cf)"><path fill="#6ce200" d="M 197.394531 218.433594 C 217.394531 246.234375 211.050781 284.996094 183.234375 304.988281 C 155.425781 324.988281 116.667969 318.644531 96.675781 290.828125 C 76.675781 263.019531 83.027344 224.261719 110.835938 204.261719 C 138.648438 184.273438 177.40625 190.617188 197.394531 218.433594 " fill-opacity="1" fill-rule="nonzero"/></g></g></g><g clip-path="url(#36c6a7b6ee)"><g clip-path="url(#74f13c7ff4)"><g clip-path="url(#90d7f1d48d)"><path fill="#6ce200" d="M 149.492188 237.496094 L 168.828125 62.902344 C 169.078125 60.582031 167.40625 58.496094 165.097656 58.230469 C 162.769531 57.980469 160.683594 59.648438 160.425781 61.96875 L 141.097656 236.5625 C 140.847656 238.878906 142.507812 240.964844 144.828125 241.226562 C 147.15625 241.480469 149.238281 239.8125 149.492188 237.496094 " fill-opacity="1" fill-rule="nonzero"/></g></g></g><g clip-path="url(#618e6174ad)"><g clip-path="url(#44b1068979)"><g clip-path="url(#2b6b251d02)"><path fill="#6ce200" d="M 124.433594 258.734375 L 299.796875 248.460938 C 302.125 248.324219 303.902344 246.328125 303.757812 244.003906 C 303.625 241.675781 301.628906 239.894531 299.300781 240.03125 L 123.9375 250.308594 C 121.609375 250.441406 119.828125 252.4375 119.964844 254.765625 C 120.101562 257.097656 122.105469 258.871094 124.433594 258.734375 " fill-opacity="1" fill-rule="nonzero"/></g></g></g><g clip-path="url(#01c96cfd5d)"><g clip-path="url(#32c1c9a712)"><g clip-path="url(#2e9bde30cc)"><path fill="#6ce200" d="M 198.605469 55.863281 C 213.140625 76.09375 208.535156 104.28125 188.300781 118.816406 C 168.070312 133.363281 139.882812 128.757812 125.335938 108.527344 C 110.804688 88.296875 115.410156 60.113281 135.640625 45.570312 C 155.875 31.027344 184.058594 35.632812 198.605469 55.863281 " fill-opacity="1" fill-rule="nonzero"/></g></g></g><g clip-path="url(#79ce12a95d)"><g clip-path="url(#b1822e36c8)"><g clip-path="url(#9ade913c75)"><path fill="#6ce200" d="M 336.179688 217.925781 C 350.722656 238.15625 346.109375 266.34375 325.875 280.878906 C 305.644531 295.425781 277.464844 290.808594 262.921875 270.585938 C 248.378906 250.355469 252.992188 222.164062 273.222656 207.621094 C 293.453125 193.074219 321.632812 197.691406 336.179688 217.925781 " fill-opacity="1" fill-rule="nonzero"/></g></g></g></svg>